<!DOCTYPE svg PUBLIC "-//W3C//DTD SVG 20010904//EN" "http://www.w3.org/TR/2001/REC-SVG-20010904/DTD/svg10.dtd">
<svg version="1.0" xmlns="http://www.w3.org/2000/svg" width="281px" height="70px" viewBox="0 0 2810 700" preserveAspectRatio="xMidYMid meet">
<g id="layer101" fill="#85281d" stroke="none">
 <path d="M1190 631 l-45 -38 -3 -144 c-2 -79 -9 -150 -14 -156 -6 -7 -20 -13 -32 -13 -45 0 -51 14 -56 126 l-5 107 -29 10 c-53 18 -57 0 -54 -248 l3 -220 25 -3 c41 -4 54 12 60 75 l5 58 36 -2 c51 -3 107 28 132 74 18 33 21 55 22 161 0 117 1 125 23 143 23 18 50 18 747 15 398 -2 728 0 733 3 19 13 30 46 21 69 l-8 22 -758 0 -758 0 -45 -39z"/>
 <path d="M2332 528 c-13 -13 -18 -458 -4 -458 4 0 16 -3 28 -6 13 -3 28 1 38 11 15 15 17 43 16 228 -1 131 -5 217 -12 224 -13 16 -50 17 -66 1z"/>
 <path d="M2519 518 c-26 -13 -44 -34 -63 -73 -24 -47 -27 -61 -21 -106 6 -40 15 -60 44 -90 47 -50 78 -61 138 -49 72 13 96 25 121 60 25 34 40 119 28 165 -8 32 -66 92 -103 106 -36 13 -102 7 -144 -13z m134 -95 c8 -10 19 -31 22 -46 6 -23 2 -34 -21 -58 -45 -47 -101 -35 -125 28 -23 62 79 125 124 76z"/>
 <path d="M70 517 l-25 -13 0 -192 0 -193 40 -34 c34 -29 47 -34 90 -34 58 1 102 23 126 65 22 36 23 68 5 129 -13 41 -13 51 -1 69 9 13 13 43 12 79 -2 54 -5 60 -45 94 -49 42 -107 53 -129 25 -12 -16 -14 -16 -24 1 -12 20 -16 21 -49 4z m110 -87 c51 0 67 -47 28 -81 -13 -10 -30 -18 -38 -19 -9 0 -21 -5 -28 -12 -9 -9 -12 4 -12 62 0 58 3 71 12 62 7 -7 24 -12 38 -12z m12 -190 c21 0 34 -55 18 -75 -15 -18 -52 -19 -68 -3 -7 7 -12 30 -12 51 0 36 2 39 23 33 12 -3 30 -6 39 -6z"/>
 <path d="M440 507 c-53 -33 -80 -59 -80 -79 0 -10 -4 -18 -8 -18 -12 0 -8 -89 6 -121 32 -77 110 -118 190 -97 20 5 43 10 49 10 48 4 97 130 91 234 -3 49 -7 60 -31 78 -21 16 -32 18 -45 10 -14 -9 -18 -29 -20 -102 -3 -87 -4 -92 -33 -116 -52 -44 -105 -27 -115 36 -5 29 -1 39 24 64 16 16 39 30 52 31 46 4 57 67 14 83 -36 14 -54 12 -94 -13z"/>
 <path d="M809 511 c-56 -26 -91 -74 -97 -133 -9 -90 21 -140 107 -186 35 -18 74 -15 94 8 16 19 16 23 3 49 -11 20 -23 29 -41 29 -31 0 -75 38 -75 64 0 42 28 75 75 88 40 11 45 16 45 41 0 17 -8 34 -22 43 -28 20 -43 19 -89 -3z"/>
 <path d="M1365 520 c-31 -13 -80 -62 -93 -93 -37 -87 15 -217 95 -235 39 -9 104 -9 109 -1 3 5 12 9 20 9 26 0 84 63 95 103 9 33 7 203 -3 212 -2 2 -15 6 -29 10 -37 9 -46 -9 -52 -100 -8 -120 -22 -145 -81 -145 -28 0 -76 49 -76 77 0 29 45 70 85 77 26 5 36 13 41 32 13 50 -50 80 -111 54z"/>
 <path d="M1711 519 c-73 -29 -92 -85 -90 -263 1 -157 7 -170 65 -143 29 14 33 21 28 42 -7 28 -11 27 91 27 74 -1 105 14 105 49 0 37 -27 49 -111 49 -43 0 -79 3 -80 8 0 4 -3 29 -5 55 -6 58 13 87 57 87 23 0 30 -5 35 -27 11 -53 23 -73 44 -73 65 0 80 60 33 131 -39 59 -109 83 -172 58z"/>
 <path d="M2034 511 c-143 -65 -131 -269 19 -320 70 -23 168 13 182 66 6 24 -1 35 -58 90 -36 35 -71 63 -78 63 -8 0 -23 -12 -33 -27 -19 -25 -19 -28 -2 -56 9 -16 14 -32 12 -34 -7 -7 -56 47 -56 61 0 23 47 66 85 78 33 11 41 18 43 41 7 57 -38 72 -114 38z"/>
 <path d="M2202 519 c-22 -8 -23 -14 -21 -88 2 -77 3 -81 35 -110 l34 -29 15 21 c23 32 21 169 -2 189 -28 24 -37 26 -61 17z"/>
 </g>
<g id="layer102" fill="#5f5f61" stroke="none">
 <path d="M1189 630 l-44 -37 -3 -144 c-2 -79 -9 -150 -14 -156 -6 -7 -20 -13 -32 -13 -45 0 -51 14 -56 126 l-5 107 -29 10 c-53 18 -57 0 -54 -248 l3 -220 25 -3 c41 -4 54 12 60 75 l5 58 36 -2 c51 -3 107 28 132 74 18 33 21 55 22 162 0 121 1 124 25 143 25 18 55 19 746 18 677 0 722 1 736 17 11 13 13 25 7 40 l-8 23 -618 1 c-340 0 -680 2 -755 3 l-136 3 -43 -37z"/>
 <path d="M2332 528 c-13 -13 -18 -458 -4 -458 4 0 16 -3 28 -6 13 -3 28 1 38 11 15 15 17 43 16 228 -1 131 -5 217 -12 224 -13 16 -50 17 -66 1z"/>
 <path d="M2519 518 c-26 -13 -44 -34 -63 -73 -24 -47 -27 -61 -21 -106 6 -40 15 -60 44 -90 47 -50 78 -61 138 -49 72 13 96 25 121 60 25 34 40 119 28 165 -8 32 -66 92 -103 106 -36 13 -102 7 -144 -13z m134 -95 c8 -10 19 -31 22 -46 6 -23 2 -34 -21 -58 -45 -47 -101 -35 -125 28 -23 62 79 125 124 76z"/>
 <path d="M70 517 l-25 -13 0 -192 0 -193 40 -34 c34 -29 47 -34 90 -34 58 1 102 23 126 65 22 36 23 68 5 129 -13 41 -13 51 -1 69 9 13 13 43 12 79 -2 54 -5 60 -45 94 -49 42 -107 53 -129 25 -12 -16 -14 -16 -24 1 -12 20 -16 21 -49 4z m110 -87 c51 0 67 -47 28 -81 -13 -10 -30 -18 -38 -19 -9 0 -21 -5 -28 -12 -9 -9 -12 4 -12 62 0 58 3 71 12 62 7 -7 24 -12 38 -12z m12 -190 c21 0 34 -55 18 -75 -15 -18 -52 -19 -68 -3 -7 7 -12 30 -12 51 0 36 2 39 23 33 12 -3 30 -6 39 -6z"/>
 <path d="M440 507 c-53 -33 -80 -59 -80 -79 0 -10 -4 -18 -8 -18 -12 0 -8 -89 6 -121 32 -77 110 -118 190 -97 20 5 43 10 49 10 48 4 97 130 91 234 -3 49 -7 60 -31 78 -21 16 -32 18 -45 10 -14 -9 -18 -29 -20 -102 -3 -87 -4 -92 -33 -116 -52 -44 -105 -27 -115 36 -5 29 -1 39 24 64 16 16 39 30 52 31 46 4 57 67 14 83 -36 14 -54 12 -94 -13z"/>
 <path d="M809 511 c-56 -26 -91 -74 -97 -133 -9 -90 21 -140 107 -186 35 -18 74 -15 94 8 16 19 16 23 3 49 -11 20 -23 29 -41 29 -31 0 -75 38 -75 64 0 42 28 75 75 88 40 11 45 16 45 41 0 17 -8 34 -22 43 -28 20 -43 19 -89 -3z"/>
 <path d="M1365 520 c-31 -13 -80 -62 -93 -93 -37 -87 15 -217 95 -235 39 -9 104 -9 109 -1 3 5 12 9 20 9 26 0 84 63 95 103 9 33 7 203 -3 212 -2 2 -15 6 -29 10 -37 9 -46 -9 -52 -100 -8 -120 -22 -145 -81 -145 -28 0 -76 49 -76 77 0 29 45 70 85 77 26 5 36 13 41 32 13 50 -50 80 -111 54z"/>
 <path d="M1711 519 c-73 -29 -92 -85 -90 -263 1 -157 7 -170 65 -143 29 14 33 21 28 42 -7 28 -11 27 91 27 74 -1 105 14 105 49 0 37 -27 49 -111 49 -43 0 -79 3 -80 8 0 4 -3 29 -5 55 -6 58 13 87 57 87 23 0 30 -5 35 -27 11 -53 23 -73 44 -73 65 0 80 60 33 131 -39 59 -109 83 -172 58z"/>
 <path d="M2203 519 c-21 -8 -23 -15 -23 -78 0 -65 2 -71 35 -107 34 -38 36 -38 50 -20 23 30 21 168 -2 188 -28 24 -37 26 -60 17z"/>
 <path d="M2045 505 c-123 -44 -138 -222 -23 -289 62 -37 175 -15 200 40 11 23 7 29 -38 75 -61 63 -81 74 -100 58 -20 -16 -17 -46 6 -77 27 -34 12 -49 -28 -28 -24 12 -32 24 -37 58 -7 39 -5 44 25 70 18 15 42 28 53 30 29 4 45 33 31 56 -14 22 -40 25 -89 7z"/>
 </g>
<g id="layer103" fill="#d4361d" stroke="none">
 <path d="M1221 649 c-63 -28 -75 -61 -81 -218 -6 -149 -13 -164 -67 -145 -28 9 -28 10 -33 113 -4 90 -8 105 -25 117 -18 12 -24 11 -43 -2 -21 -15 -22 -20 -22 -220 0 -212 5 -244 40 -244 34 0 50 28 50 86 l0 54 38 -2 c52 -2 107 27 134 71 20 32 23 50 24 156 2 152 0 142 24 155 14 7 247 11 743 10 680 0 725 1 739 17 11 13 13 25 7 41 l-8 22 -618 1 c-340 0 -673 2 -740 3 -100 2 -130 0 -162 -15z"/>
 <path d="M2343 527 c-23 -10 -23 -12 -23 -223 0 -180 2 -215 16 -228 20 -20 38 -20 58 0 13 13 16 46 16 209 0 236 -9 268 -67 242z"/>
 <path d="M2555 527 c-72 -28 -125 -96 -125 -158 0 -27 33 -103 53 -123 51 -52 155 -60 216 -17 39 28 71 89 71 136 0 34 -30 106 -54 130 -15 15 -92 45 -114 44 -9 0 -30 -6 -47 -12z m102 -109 c48 -45 14 -128 -53 -128 -35 0 -60 19 -75 56 -27 72 70 127 128 72z"/>
 <path d="M154 514 c-19 -10 -31 -11 -38 -4 -14 14 -49 13 -64 -2 -8 -8 -12 -63 -12 -182 0 -191 7 -216 72 -256 105 -64 231 37 199 157 -6 23 -16 45 -21 48 -5 3 0 26 11 51 15 32 19 56 14 82 -14 80 -101 137 -161 106z m2 -69 c9 -8 24 -15 33 -15 49 0 53 -66 6 -89 -16 -8 -38 -18 -47 -23 -16 -7 -18 -1 -18 67 0 41 3 75 6 75 3 0 12 -7 20 -15z m0 -194 c5 -5 20 -11 33 -13 31 -4 46 -28 37 -61 -8 -35 -49 -46 -76 -22 -14 13 -20 31 -20 62 0 42 7 52 26 34z"/>
 <path d="M480 523 c-88 -32 -130 -86 -130 -167 0 -67 24 -112 77 -143 77 -45 160 -30 216 37 32 38 39 72 35 174 -3 68 -6 81 -25 93 -19 13 -24 12 -42 -6 -18 -18 -21 -33 -21 -106 0 -74 -3 -87 -22 -105 -50 -46 -137 -7 -132 59 3 42 32 72 75 77 51 6 64 39 29 74 -20 20 -33 23 -60 13z"/>
 <path d="M839 520 c-114 -34 -166 -166 -101 -256 35 -47 46 -56 95 -73 33 -11 41 -10 62 3 42 28 30 65 -25 81 -42 12 -70 45 -70 81 0 38 32 74 65 74 25 0 55 29 55 53 0 9 -10 23 -22 31 -25 18 -23 17 -59 6z"/>
 <path d="M1360 509 c-32 -14 -54 -33 -74 -65 -24 -39 -28 -52 -24 -99 11 -128 137 -196 249 -133 61 34 83 83 84 192 2 76 -1 91 -18 106 -16 15 -24 16 -43 8 -25 -12 -24 -6 -29 -157 -1 -33 -7 -49 -24 -62 -53 -43 -131 -8 -131 59 0 36 32 72 65 72 25 0 55 29 55 53 0 16 -36 47 -55 47 -5 -1 -30 -10 -55 -21z"/>
 <path d="M1711 508 c-77 -39 -86 -60 -89 -210 -4 -154 0 -176 33 -184 31 -8 55 11 55 42 0 26 3 27 76 25 64 -3 124 20 124 48 0 39 -26 51 -115 51 l-84 0 0 58 c0 65 17 92 59 92 27 0 41 -18 55 -67 3 -12 14 -25 24 -28 76 -24 76 100 0 158 -51 38 -86 41 -138 15z"/>
 <path d="M2201 511 c-17 -17 -21 -34 -21 -80 0 -53 4 -63 33 -96 19 -21 39 -35 45 -32 6 4 9 45 9 103 -2 87 -4 98 -24 111 -19 13 -24 12 -42 -6z"/>
 <path d="M2045 505 c-123 -44 -138 -222 -23 -289 62 -37 175 -15 200 40 11 23 7 29 -38 75 -61 63 -81 74 -100 58 -20 -16 -17 -46 6 -77 27 -34 12 -49 -28 -28 -24 12 -32 24 -37 58 -7 39 -5 44 25 70 18 15 42 28 53 30 29 4 45 33 31 56 -14 22 -40 25 -89 7z"/>
 </g>
<g id="layer104" fill="#f8f7f7" stroke="none">
 <path d="M1223 651 c-65 -30 -77 -62 -83 -220 -6 -149 -13 -164 -67 -145 -28 9 -28 10 -33 113 -4 90 -8 105 -25 117 -18 12 -24 11 -43 -2 -21 -15 -22 -20 -22 -220 0 -212 5 -244 40 -244 34 0 50 28 50 86 l0 54 38 -2 c52 -2 107 27 134 71 21 32 23 49 23 165 1 114 3 130 20 142 10 8 26 14 35 14 22 0 40 20 40 45 0 47 -39 56 -107 26z"/>
 <path d="M2343 527 c-23 -10 -23 -12 -23 -223 0 -180 2 -215 16 -228 20 -20 38 -20 58 0 13 13 16 46 16 209 0 236 -9 268 -67 242z"/>
 <path d="M2555 527 c-72 -28 -125 -96 -125 -158 0 -27 33 -103 53 -123 51 -52 155 -60 216 -17 39 28 71 89 71 136 0 34 -30 106 -54 130 -15 15 -92 45 -114 44 -9 0 -30 -6 -47 -12z m102 -109 c48 -45 14 -128 -53 -128 -35 0 -60 19 -75 56 -27 72 70 127 128 72z"/>
 <path d="M154 514 c-19 -10 -31 -11 -38 -4 -14 14 -49 13 -64 -2 -8 -8 -12 -63 -12 -182 0 -191 7 -216 72 -256 105 -64 231 37 199 157 -6 23 -16 45 -21 48 -5 3 0 26 11 51 15 32 19 56 14 82 -14 80 -101 137 -161 106z m2 -69 c9 -8 24 -15 33 -15 49 0 53 -66 6 -89 -16 -8 -38 -18 -47 -23 -16 -7 -18 -1 -18 67 0 41 3 75 6 75 3 0 12 -7 20 -15z m0 -194 c5 -5 20 -11 33 -13 31 -4 46 -28 37 -61 -8 -35 -49 -46 -76 -22 -14 13 -20 31 -20 62 0 42 7 52 26 34z"/>
 <path d="M480 523 c-88 -32 -130 -86 -130 -167 0 -67 24 -112 77 -143 77 -45 160 -30 216 37 32 38 39 72 35 174 -3 68 -6 81 -25 93 -19 13 -24 12 -42 -6 -18 -18 -21 -33 -21 -106 0 -74 -3 -87 -22 -105 -50 -46 -137 -7 -132 59 3 42 32 72 75 77 51 6 64 39 29 74 -20 20 -33 23 -60 13z"/>
 <path d="M839 520 c-114 -34 -166 -166 -101 -256 35 -47 46 -56 95 -73 33 -11 41 -10 62 3 42 28 30 65 -25 81 -42 12 -70 45 -70 81 0 38 32 74 65 74 25 0 55 29 55 53 0 9 -10 23 -22 31 -25 18 -23 17 -59 6z"/>
 <path d="M1360 509 c-32 -14 -54 -33 -74 -65 -24 -39 -28 -52 -24 -99 11 -128 137 -196 249 -133 61 34 83 83 84 192 2 76 -1 91 -18 106 -16 15 -24 16 -43 8 -25 -12 -24 -6 -29 -157 -1 -33 -7 -49 -24 -62 -53 -43 -131 -8 -131 59 0 36 32 72 65 72 25 0 55 29 55 53 0 16 -36 47 -55 47 -5 -1 -30 -10 -55 -21z"/>
 <path d="M1711 508 c-77 -39 -86 -60 -89 -210 -4 -154 0 -176 33 -184 31 -8 55 11 55 42 0 26 3 27 76 25 64 -3 124 20 124 48 0 39 -26 51 -115 51 l-84 0 0 58 c0 65 17 92 59 92 27 0 41 -18 55 -67 3 -12 14 -25 24 -28 76 -24 76 100 0 158 -51 38 -86 41 -138 15z"/>
 <path d="M2201 511 c-17 -17 -21 -34 -21 -79 0 -54 3 -62 36 -96 19 -20 39 -34 44 -31 4 3 7 48 7 101 -2 87 -4 98 -24 111 -19 13 -24 12 -42 -6z"/>
 </g>

</svg>