<!DOCTYPE svg PUBLIC "-//W3C//DTD SVG 20010904//EN" "http://www.w3.org/TR/2001/REC-SVG-20010904/DTD/svg10.dtd">
<svg version="1.0" xmlns="http://www.w3.org/2000/svg" width="281px" height="70px" viewBox="0 0 2810 700" preserveAspectRatio="xMidYMid meet">
<g id="layer101" fill="#580e08" stroke="none">
 <path d="M1333 681 c-8 -12 -19 -18 -32 -14 -25 6 -83 -13 -111 -37 -35 -30 -48 -85 -49 -209 -1 -65 -7 -121 -13 -128 -16 -20 -66 -16 -78 6 -5 11 -10 60 -10 108 0 94 -8 113 -45 113 -42 0 -45 -13 -45 -237 0 -200 1 -213 19 -223 46 -24 71 3 71 75 l0 54 44 -1 c54 -1 100 25 129 71 18 30 21 49 20 155 0 67 3 129 8 138 11 21 69 39 85 26 9 -6 1308 -15 1406 -9 10 1 25 15 33 32 15 28 15 33 0 55 -15 24 -16 24 -193 24 -1020 0 -1221 2 -1224 11 -2 5 -8 1 -15 -10z"/>
 <path d="M2055 533 c-78 -20 -143 -115 -131 -190 2 -16 5 -36 5 -45 1 -10 15 -33 31 -51 17 -19 30 -39 30 -44 0 -6 34 -16 76 -23 80 -14 103 -8 156 37 20 18 41 73 27 73 -5 0 -9 4 -9 10 0 5 6 9 13 7 9 -1 12 23 12 97 0 90 -2 100 -22 113 -19 13 -24 12 -42 -6 -27 -27 -30 -131 -6 -151 9 -7 13 -15 11 -18 -3 -2 -24 14 -47 37 -38 39 -40 43 -23 55 24 18 23 75 -1 92 -19 14 -43 16 -80 7z"/>
 <path d="M2555 527 c-71 -28 -125 -95 -125 -156 0 -38 40 -115 73 -141 44 -35 146 -36 195 -2 106 76 88 238 -32 293 -47 21 -69 22 -111 6z m75 -87 c5 0 18 -10 30 -22 64 -69 -39 -170 -110 -108 -26 22 -30 81 -8 107 16 19 49 33 66 27 8 -2 18 -4 22 -4z"/>
 <path d="M611 511 c-18 -18 -21 -33 -21 -104 0 -74 -3 -86 -23 -105 -28 -27 -77 -29 -105 -4 -18 15 -27 43 -23 78 2 22 39 54 70 60 39 8 56 36 41 64 -8 15 -21 20 -53 20 -50 0 -89 -23 -124 -75 -22 -32 -25 -46 -21 -99 4 -71 24 -104 81 -136 67 -38 153 -25 203 32 35 39 45 79 42 172 -3 78 -6 90 -25 103 -19 13 -24 12 -42 -6z"/>
 <path d="M1365 511 c-169 -77 -120 -321 64 -321 52 0 79 11 118 49 41 39 55 92 50 187 -5 76 -13 94 -47 94 -32 0 -39 -17 -46 -113 -6 -83 -10 -100 -28 -112 -53 -37 -126 -1 -126 63 0 38 26 65 80 81 32 9 40 17 40 35 0 25 -28 56 -51 56 -8 0 -32 -9 -54 -19z"/>
 <path d="M2332 518 c-9 -9 -12 -71 -12 -219 0 -175 2 -210 16 -223 20 -21 37 -20 57 2 15 16 17 46 17 216 0 117 -4 205 -10 217 -12 21 -50 25 -68 7z"/>
 <path d="M52 508 c-8 -8 -12 -62 -12 -177 0 -138 3 -172 18 -200 51 -101 183 -106 242 -9 25 42 25 83 0 133 -19 37 -19 40 -3 58 12 12 17 35 17 70 0 58 -19 94 -66 121 -31 19 -89 21 -106 4 -9 -9 -15 -9 -24 0 -7 7 -21 12 -33 12 -12 0 -26 -5 -33 -12z m158 -87 c25 -13 24 -57 -2 -75 -12 -9 -30 -16 -40 -16 -10 0 -18 -4 -18 -10 0 -5 -4 -10 -10 -10 -6 0 -10 31 -10 74 l0 74 33 -14 c17 -9 39 -19 47 -23z m-21 -181 c47 0 52 -84 5 -96 -38 -10 -64 19 -64 73 0 40 2 43 19 33 11 -5 29 -10 40 -10z"/>
 <path d="M803 506 c-49 -22 -93 -90 -93 -143 0 -81 52 -151 127 -174 38 -11 45 -10 63 6 35 32 23 64 -30 80 -42 12 -70 45 -70 82 0 37 23 62 72 79 40 13 57 38 42 62 -14 22 -69 26 -111 8z"/>
 <path d="M1689 497 c-58 -39 -70 -75 -68 -217 2 -144 8 -170 42 -170 29 0 44 16 49 50 3 24 6 25 91 30 85 5 107 14 107 45 0 32 -21 40 -110 43 l-90 4 0 60 c0 67 13 88 55 88 33 0 55 -21 55 -54 0 -23 24 -46 49 -46 17 0 41 31 41 53 0 40 -39 104 -74 121 -49 23 -107 20 -147 -7z"/>
 </g>
<g id="layer102" fill="#a23528" stroke="none">
 <path d="M1232 655 c-72 -31 -89 -75 -91 -234 -1 -65 -7 -121 -13 -128 -16 -20 -66 -16 -78 6 -5 11 -10 60 -10 108 0 94 -8 113 -45 113 -42 0 -45 -13 -45 -237 0 -200 1 -213 19 -223 46 -24 71 3 71 75 l0 54 44 -1 c53 -1 100 25 128 71 18 29 21 48 20 145 -1 134 2 152 28 166 13 7 256 10 746 10 528 0 730 3 740 11 18 15 18 53 0 68 -10 8 -214 11 -747 11 -610 -1 -740 -3 -767 -15z"/>
 <path d="M2555 527 c-71 -28 -125 -95 -125 -156 0 -38 40 -115 73 -141 44 -35 146 -36 195 -2 106 76 88 238 -32 293 -47 21 -69 22 -111 6z m75 -87 c5 0 18 -10 30 -22 64 -69 -39 -170 -110 -108 -26 22 -30 81 -8 107 16 19 49 33 66 27 8 -2 18 -4 22 -4z"/>
 <path d="M611 511 c-18 -18 -21 -33 -21 -104 0 -74 -3 -86 -23 -105 -28 -27 -77 -29 -105 -4 -18 15 -27 43 -23 78 2 22 39 54 70 60 39 8 56 36 41 64 -8 15 -21 20 -53 20 -50 0 -89 -23 -124 -75 -22 -32 -25 -46 -21 -99 4 -71 24 -104 81 -136 67 -38 153 -25 203 32 35 39 45 79 42 172 -3 78 -6 90 -25 103 -19 13 -24 12 -42 -6z"/>
 <path d="M1365 511 c-169 -77 -120 -321 64 -321 52 0 79 11 118 49 41 39 55 92 50 187 -5 76 -13 94 -47 94 -32 0 -39 -17 -46 -113 -6 -83 -10 -100 -28 -112 -53 -37 -126 -1 -126 63 0 38 26 65 80 81 32 9 40 17 40 35 0 25 -28 56 -51 56 -8 0 -32 -9 -54 -19z"/>
 <path d="M2201 511 c-16 -16 -21 -34 -21 -79 0 -53 3 -61 36 -96 23 -24 39 -35 45 -29 6 6 8 52 7 103 -3 82 -5 94 -25 107 -19 13 -24 12 -42 -6z"/>
 <path d="M2332 518 c-9 -9 -12 -71 -12 -219 0 -175 2 -210 16 -223 20 -21 37 -20 57 2 15 16 17 46 17 216 0 117 -4 205 -10 217 -12 21 -50 25 -68 7z"/>
 <path d="M52 508 c-8 -8 -12 -62 -12 -177 0 -138 3 -172 18 -200 51 -101 183 -106 242 -9 25 42 25 83 0 133 -19 37 -19 40 -3 58 12 12 17 35 17 70 0 58 -19 94 -66 121 -31 19 -89 21 -106 4 -9 -9 -15 -9 -24 0 -7 7 -21 12 -33 12 -12 0 -26 -5 -33 -12z m158 -87 c25 -13 24 -57 -2 -75 -12 -9 -30 -16 -40 -16 -10 0 -18 -4 -18 -10 0 -5 -4 -10 -10 -10 -6 0 -10 31 -10 74 l0 74 33 -14 c17 -9 39 -19 47 -23z m-21 -181 c47 0 52 -84 5 -96 -38 -10 -64 19 -64 73 0 40 2 43 19 33 11 -5 29 -10 40 -10z"/>
 <path d="M803 506 c-49 -22 -93 -90 -93 -143 0 -81 52 -151 127 -174 38 -11 45 -10 63 6 35 32 23 64 -30 80 -42 12 -70 45 -70 82 0 37 23 62 72 79 40 13 57 38 42 62 -14 22 -69 26 -111 8z"/>
 <path d="M1689 497 c-58 -39 -70 -75 -68 -217 2 -144 8 -170 42 -170 29 0 44 16 49 50 3 24 6 25 91 30 85 5 107 14 107 45 0 32 -21 40 -110 43 l-90 4 0 60 c0 67 13 88 55 88 33 0 55 -21 55 -54 0 -23 24 -46 49 -46 17 0 41 31 41 53 0 40 -39 104 -74 121 -49 23 -107 20 -147 -7z"/>
 <path d="M2025 503 c-60 -32 -85 -76 -85 -149 0 -52 16 -88 59 -128 54 -52 176 -46 221 11 11 14 20 30 20 34 0 5 -26 36 -58 69 -62 63 -93 75 -112 41 -15 -28 -13 -36 16 -70 27 -32 22 -37 -20 -21 -33 12 -48 64 -30 101 7 14 28 32 46 38 52 20 63 27 66 45 9 44 -63 61 -123 29z"/>
 </g>
<g id="layer103" fill="#d5391e" stroke="none">
 <path d="M1232 655 c-72 -32 -89 -75 -91 -234 -1 -65 -7 -121 -13 -128 -16 -20 -66 -16 -78 6 -5 11 -10 60 -10 108 0 94 -8 113 -45 113 -42 0 -45 -13 -45 -237 0 -200 1 -213 19 -223 46 -24 71 3 71 75 l0 54 44 -1 c54 -1 100 25 129 71 18 30 21 49 20 155 0 67 4 129 9 138 5 10 28 23 51 28 27 7 298 12 747 13 l705 2 0 30 0 30 -697 3 c-555 2 -698 0 -698 -10 0 -10 -2 -10 -8 0 -13 20 -73 24 -110 7z"/>
 <path d="M2555 527 c-71 -28 -125 -95 -125 -156 0 -38 40 -115 73 -141 44 -35 146 -36 195 -2 106 76 88 238 -32 293 -47 21 -69 22 -111 6z m75 -87 c5 0 18 -10 30 -22 64 -69 -39 -170 -110 -108 -26 22 -30 81 -8 107 16 19 49 33 66 27 8 -2 18 -4 22 -4z"/>
 <path d="M611 511 c-18 -18 -21 -33 -21 -104 0 -74 -3 -86 -23 -105 -28 -27 -77 -29 -105 -4 -18 15 -27 43 -23 78 2 22 39 54 70 60 39 8 56 36 41 64 -8 15 -21 20 -53 20 -50 0 -89 -23 -124 -75 -22 -32 -25 -46 -21 -99 4 -71 24 -104 81 -136 67 -38 153 -25 203 32 35 39 45 79 42 172 -3 78 -6 90 -25 103 -19 13 -24 12 -42 -6z"/>
 <path d="M1365 511 c-169 -77 -120 -321 64 -321 52 0 79 11 118 49 41 39 55 92 50 187 -5 76 -13 94 -47 94 -32 0 -39 -17 -46 -113 -6 -83 -10 -100 -28 -112 -53 -37 -126 -1 -126 63 0 38 26 65 80 81 32 9 40 17 40 35 0 25 -28 56 -51 56 -8 0 -32 -9 -54 -19z"/>
 <path d="M2201 511 c-16 -16 -21 -34 -21 -79 0 -53 3 -61 36 -96 23 -24 39 -35 45 -29 6 6 8 52 7 103 -3 82 -5 94 -25 107 -19 13 -24 12 -42 -6z"/>
 <path d="M2332 518 c-9 -9 -12 -71 -12 -219 0 -175 2 -210 16 -223 20 -21 37 -20 57 2 15 16 17 46 17 216 0 117 -4 205 -10 217 -12 21 -50 25 -68 7z"/>
 <path d="M52 508 c-8 -8 -12 -62 -12 -177 0 -138 3 -172 18 -200 51 -101 183 -106 242 -9 25 42 25 83 0 133 -19 37 -19 40 -3 58 12 12 17 35 17 70 0 58 -19 94 -66 121 -31 19 -89 21 -106 4 -9 -9 -15 -9 -24 0 -7 7 -21 12 -33 12 -12 0 -26 -5 -33 -12z m158 -87 c25 -13 24 -57 -2 -75 -12 -9 -30 -16 -40 -16 -10 0 -18 -4 -18 -10 0 -5 -4 -10 -10 -10 -6 0 -10 31 -10 74 l0 74 33 -14 c17 -9 39 -19 47 -23z m-21 -181 c47 0 52 -84 5 -96 -38 -10 -64 19 -64 73 0 40 2 43 19 33 11 -5 29 -10 40 -10z"/>
 <path d="M803 506 c-49 -22 -93 -90 -93 -143 0 -81 52 -151 127 -174 38 -11 45 -10 63 6 35 32 23 64 -30 80 -42 12 -70 45 -70 82 0 37 23 62 72 79 40 13 57 38 42 62 -14 22 -69 26 -111 8z"/>
 <path d="M1689 497 c-58 -39 -70 -75 -68 -217 2 -144 8 -170 42 -170 29 0 44 16 49 50 3 24 6 25 91 30 85 5 107 14 107 45 0 32 -21 40 -110 43 l-90 4 0 60 c0 67 13 88 55 88 33 0 55 -21 55 -54 0 -23 24 -46 49 -46 17 0 41 31 41 53 0 40 -39 104 -74 121 -49 23 -107 20 -147 -7z"/>
 <path d="M2075 513 c-79 -19 -125 -77 -125 -157 0 -46 26 -116 43 -116 5 0 22 -10 39 -21 43 -31 127 -23 168 16 17 16 30 32 30 37 0 4 -24 33 -54 64 -40 42 -59 55 -77 52 -34 -4 -36 -39 -4 -77 20 -23 23 -32 13 -36 -43 -15 -88 23 -88 75 0 47 23 76 75 92 42 14 56 38 35 63 -13 15 -20 16 -55 8z"/>
 </g>
<g id="layer104" fill="#f6f6f6" stroke="none">
 <path d="M1232 655 c-72 -31 -89 -75 -91 -234 -1 -65 -7 -121 -13 -128 -16 -20 -66 -16 -78 6 -5 11 -10 60 -10 108 0 94 -8 113 -45 113 -42 0 -45 -13 -45 -237 0 -200 1 -213 19 -223 46 -24 71 3 71 75 l0 54 44 -1 c53 -1 100 25 128 71 18 29 21 50 22 163 1 116 3 131 20 144 11 8 27 14 36 14 22 0 40 20 40 45 0 44 -38 56 -98 30z"/>
 <path d="M2555 527 c-71 -28 -125 -95 -125 -156 0 -38 40 -115 73 -141 44 -35 146 -36 195 -2 106 76 88 238 -32 293 -47 21 -69 22 -111 6z m75 -87 c5 0 18 -10 30 -22 64 -69 -39 -170 -110 -108 -26 22 -30 81 -8 107 16 19 49 33 66 27 8 -2 18 -4 22 -4z"/>
 <path d="M611 511 c-18 -18 -21 -33 -21 -104 0 -74 -3 -86 -23 -105 -28 -27 -77 -29 -105 -4 -18 15 -27 43 -23 78 2 22 39 54 70 60 39 8 56 36 41 64 -8 15 -21 20 -53 20 -50 0 -89 -23 -124 -75 -22 -32 -25 -46 -21 -99 4 -71 24 -104 81 -136 67 -38 153 -25 203 32 35 39 45 79 42 172 -3 78 -6 90 -25 103 -19 13 -24 12 -42 -6z"/>
 <path d="M1365 511 c-169 -77 -120 -321 64 -321 52 0 79 11 118 49 41 39 55 92 50 187 -5 76 -13 94 -47 94 -32 0 -39 -17 -46 -113 -6 -83 -10 -100 -28 -112 -53 -37 -126 -1 -126 63 0 38 26 65 80 81 32 9 40 17 40 35 0 25 -28 56 -51 56 -8 0 -32 -9 -54 -19z"/>
 <path d="M2201 511 c-16 -16 -21 -34 -21 -79 0 -53 3 -61 36 -96 23 -24 39 -35 45 -29 6 6 8 52 7 103 -3 82 -5 94 -25 107 -19 13 -24 12 -42 -6z"/>
 <path d="M2332 518 c-9 -9 -12 -71 -12 -219 0 -175 2 -210 16 -223 20 -21 37 -20 57 2 15 16 17 46 17 216 0 117 -4 205 -10 217 -12 21 -50 25 -68 7z"/>
 <path d="M52 508 c-8 -8 -12 -62 -12 -177 0 -138 3 -172 18 -200 51 -101 183 -106 242 -9 25 42 25 83 0 133 -19 37 -19 40 -3 58 12 12 17 35 17 70 0 58 -19 94 -66 121 -31 19 -89 21 -106 4 -9 -9 -15 -9 -24 0 -7 7 -21 12 -33 12 -12 0 -26 -5 -33 -12z m158 -87 c25 -13 24 -57 -2 -75 -12 -9 -30 -16 -40 -16 -10 0 -18 -4 -18 -10 0 -5 -4 -10 -10 -10 -6 0 -10 31 -10 74 l0 74 33 -14 c17 -9 39 -19 47 -23z m-21 -181 c47 0 52 -84 5 -96 -38 -10 -64 19 -64 73 0 40 2 43 19 33 11 -5 29 -10 40 -10z"/>
 <path d="M803 506 c-49 -22 -93 -90 -93 -143 0 -81 52 -151 127 -174 38 -11 45 -10 63 6 35 32 23 64 -30 80 -42 12 -70 45 -70 82 0 37 23 62 72 79 40 13 57 38 42 62 -14 22 -69 26 -111 8z"/>
 <path d="M1689 497 c-58 -39 -70 -75 -68 -217 2 -144 8 -170 42 -170 29 0 44 16 49 50 3 24 6 25 91 30 85 5 107 14 107 45 0 32 -21 40 -110 43 l-90 4 0 60 c0 67 13 88 55 88 33 0 55 -21 55 -54 0 -23 24 -46 49 -46 17 0 41 31 41 53 0 40 -39 104 -74 121 -49 23 -107 20 -147 -7z"/>
 </g>

</svg>