<!DOCTYPE svg PUBLIC "-//W3C//DTD SVG 20010904//EN" "http://www.w3.org/TR/2001/REC-SVG-20010904/DTD/svg10.dtd">
<svg version="1.0" xmlns="http://www.w3.org/2000/svg" width="900px" height="900px" viewBox="0 0 9000 9000" preserveAspectRatio="xMidYMid meet">
<g id="layer101" fill="#b5b5b5" stroke="none">
 <path d="M0 4500 l0 -4500 4500 0 4500 0 0 4500 0 4500 -4500 0 -4500 0 0 -4500z"/>
 </g>
<g id="layer102" fill="#ffffff" stroke="none">
 <path d="M0 4500 l0 -4500 4500 0 4500 0 0 4500 0 4500 -4500 0 -4500 0 0 -4500z m5185 3556 c103 -27 187 -57 240 -86 76 -43 143 -85 180 -113 42 -32 925 -907 925 -917 0 -3 -176 -181 -391 -395 -214 -215 -395 -398 -401 -409 -9 -16 95 -124 845 -875 874 -875 908 -911 979 -1056 36 -73 64 -149 90 -240 19 -69 22 -106 22 -270 1 -200 -7 -255 -55 -390 -30 -86 -94 -210 -146 -285 -50 -71 -1745 -1777 -1848 -1859 -54 -44 -104 -76 -202 -132 -46 -26 -185 -74 -278 -95 -98 -23 -368 -26 -455 -5 -186 44 -293 89 -430 178 -73 48 -274 245 -1386 1357 -1402 1401 -1362 1359 -1449 1550 -79 172 -107 300 -107 486 0 239 58 431 190 635 60 93 155 190 1341 1378 821 823 1306 1301 1361 1343 113 86 277 165 410 198 131 32 143 33 320 30 118 -2 163 -7 245 -28z"/>
 <path d="M3690 5715 l-1215 -1215 1215 -1215 1215 -1215 810 810 810 810 -808 808 c-444 444 -807 811 -807 815 0 4 181 188 402 408 l401 401 -404 404 c-222 222 -404 404 -404 404 0 0 -547 -547 -1215 -1215z"/>
 </g>

</svg>