<!DOCTYPE svg PUBLIC "-//W3C//DTD SVG 20010904//EN" "http://www.w3.org/TR/2001/REC-SVG-20010904/DTD/svg10.dtd">
<svg version="1.0" xmlns="http://www.w3.org/2000/svg" width="960px" height="960px" viewBox="0 0 9600 9600" preserveAspectRatio="xMidYMid meet">
<g id="layer101" fill="#131313" stroke="none">
 <path d="M4292 5779 c-168 -57 -290 -183 -329 -338 -3 -14 -9 -210 -12 -436 -6 -443 -6 -439 -63 -492 -84 -79 -235 -42 -277 69 -6 15 -10 149 -11 318 0 270 -2 295 -20 331 -36 70 -124 95 -206 60 -95 -41 -89 13 -91 -776 -3 -675 -3 -691 17 -730 31 -62 63 -80 140 -80 51 0 72 5 96 22 57 41 64 70 64 276 l0 186 45 -16 c34 -11 74 -14 153 -11 100 3 112 6 186 42 120 58 192 133 247 256 24 55 24 57 29 475 5 412 5 421 28 462 28 53 75 78 162 87 58 6 69 10 104 45 34 35 40 47 44 96 5 55 -19 135 -40 135 -4 0 -8 7 -8 15 0 9 -9 15 -22 16 -161 4 -193 3 -236 -12z"/>
 <path d="M7985 5331 c-23 -10 -53 -33 -68 -50 l-27 -33 0 -709 c0 -785 -4 -736 65 -779 40 -25 123 -27 171 -4 72 34 69 -1 69 780 l0 700 -25 37 c-16 23 -43 44 -72 57 -57 24 -62 24 -113 1z"/>
 <path d="M8695 5331 c-137 -41 -239 -108 -312 -206 -87 -116 -112 -186 -118 -329 -5 -125 8 -193 56 -288 66 -132 169 -225 312 -281 37 -15 70 -26 75 -25 4 1 36 -2 72 -6 259 -30 504 120 600 366 24 62 28 86 29 187 1 77 -4 136 -14 175 -51 194 -221 357 -430 411 -77 20 -195 18 -270 -4z m260 -328 c115 -59 169 -187 131 -316 -18 -64 -51 -107 -110 -145 -37 -24 -50 -27 -136 -27 -105 0 -133 10 -190 67 -51 50 -70 102 -70 188 0 65 4 82 30 127 33 57 80 98 137 119 52 20 157 13 208 -13z"/>
 <path d="M7567 5316 c-95 -35 -107 -68 -107 -304 l0 -189 141 -133 c141 -134 155 -142 160 -90 1 8 4 26 7 40 2 14 7 140 9 280 3 186 1 265 -8 293 -14 41 -79 107 -107 107 -9 0 -26 2 -37 5 -11 3 -37 -2 -58 -9z"/>
 <path d="M334 5292 c-22 -11 -50 -32 -62 -47 -22 -28 -22 -28 -22 -600 0 -539 1 -575 19 -628 44 -126 151 -237 279 -289 49 -20 75 -23 177 -23 117 0 122 1 196 36 103 49 183 129 235 233 36 73 39 87 42 180 3 84 0 112 -18 165 -20 59 -79 163 -101 176 -4 3 9 29 31 57 59 79 82 147 88 261 4 88 2 105 -23 173 -35 97 -99 182 -172 232 -79 53 -118 69 -212 83 -70 11 -85 10 -125 -5 -46 -18 -96 -66 -96 -92 0 -24 -15 -16 -26 14 -27 72 -134 109 -210 74z m289 -259 c29 -25 49 -33 97 -39 36 -4 74 -16 93 -28 80 -53 94 -175 27 -242 -43 -45 -75 -61 -129 -68 -52 -6 -119 -43 -137 -76 -11 -22 -13 13 -13 260 0 244 2 281 13 255 7 -17 29 -45 49 -62z m34 -677 c26 -9 60 -16 76 -16 41 0 104 -38 128 -76 18 -29 24 -67 20 -131 -2 -33 -66 -100 -104 -109 -82 -19 -148 2 -191 59 -19 26 -21 44 -24 189 l-3 161 25 -30 c15 -18 47 -38 73 -47z"/>
 <path d="M1692 5294 c-183 -40 -362 -218 -409 -407 -20 -80 -20 -235 0 -310 38 -138 158 -289 282 -354 166 -87 392 -85 557 4 75 40 181 144 222 217 67 120 76 176 76 479 0 246 -2 271 -20 306 -19 39 -60 66 -119 77 -42 9 -114 -20 -146 -57 l-25 -31 0 -258 c0 -300 -7 -333 -82 -407 -64 -62 -124 -86 -203 -79 -149 12 -245 117 -245 267 0 137 124 259 264 259 121 0 193 128 133 235 -13 23 -37 48 -57 57 -42 22 -136 22 -228 2z"/>
 <path d="M2941 5295 c-116 -21 -204 -70 -292 -162 -110 -115 -154 -213 -165 -368 -8 -99 20 -228 68 -318 40 -74 137 -173 210 -214 100 -56 175 -75 281 -72 l96 4 34 37 c40 44 54 102 36 157 -23 72 -81 111 -166 111 -171 1 -296 202 -225 362 43 97 110 145 225 159 90 11 126 33 156 92 56 114 -25 229 -159 226 -14 -1 -58 -7 -99 -14z"/>
 <path d="M4760 5295 c-200 -50 -350 -191 -411 -385 -18 -60 -22 -119 -18 -275 1 -32 29 -115 61 -178 33 -66 131 -170 203 -216 162 -103 411 -109 587 -14 120 64 234 205 275 338 16 52 18 97 18 352 0 279 -1 293 -21 319 -38 52 -68 67 -133 67 -50 0 -66 -4 -96 -27 -20 -16 -41 -40 -47 -54 -7 -17 -14 -135 -17 -302 l-6 -275 -27 -46 c-28 -48 -77 -87 -143 -115 -51 -21 -145 -15 -202 14 -46 24 -108 91 -129 139 -23 53 -18 156 10 211 48 94 114 136 239 152 66 8 75 12 108 47 63 68 61 158 -6 223 -34 33 -40 35 -113 37 -42 1 -102 -4 -132 -12z"/>
 <path d="M5946 5299 c-121 -18 -234 -89 -308 -193 -87 -125 -88 -130 -88 -653 0 -445 0 -456 21 -490 39 -63 135 -91 198 -58 68 35 102 105 96 200 l-3 55 272 0 c304 0 319 3 364 70 20 30 23 45 20 102 -4 69 -23 104 -71 129 -10 6 -136 10 -300 9 l-282 0 1 204 c1 183 4 209 21 238 27 46 87 78 146 78 105 0 164 -60 177 -181 5 -45 15 -81 28 -98 65 -88 198 -87 260 3 43 63 24 243 -38 351 -67 118 -205 213 -340 234 -73 12 -91 12 -174 0z"/>
 </g>
<g id="layer102" fill="#fa2c04" stroke="none">
 <path d="M4550 5780 c0 -11 4 -20 8 -20 21 0 45 -80 40 -135 -4 -46 -10 -62 -37 -89 -27 -28 -30 -34 -16 -40 9 -3 1092 -6 2406 -6 l2390 0 24 24 c46 46 55 139 20 222 -29 69 166 64 -2460 64 -2368 0 -2375 0 -2375 -20z"/>
 <path d="M7097 5320 c-31 -5 -89 -23 -128 -39 -422 -177 -471 -767 -85 -1019 185 -120 447 -117 636 9 109 73 152 147 131 226 -10 35 -39 69 -191 215 -99 95 -192 178 -208 185 -109 48 -237 -65 -207 -184 3 -15 48 -70 103 -125 92 -94 95 -98 66 -99 -117 -4 -212 51 -256 148 -48 108 -29 214 55 297 55 54 83 66 197 85 87 14 130 55 138 130 13 134 -80 197 -251 171z"/>
 </g>

</svg>
