<?xml version="1.0" encoding="UTF-8" standalone="no"?>
<!DOCTYPE svg PUBLIC "-//W3C//DTD SVG 1.1//EN" "http://www.w3.org/Graphics/SVG/1.1/DTD/svg11.dtd">
<svg version="1.1" xmlns="http://www.w3.org/2000/svg" xmlns:xlink="http://www.w3.org/1999/xlink" preserveAspectRatio="xMidYMid meet" viewBox="0 0 640 640" width="640" height="640"><defs><path d="M361.34 1.79L362.7 1.8L364.06 1.83L365.41 1.86L366.76 1.9L368.09 1.94L369.41 2L370.71 2.06L371.99 2.12L373.25 2.2L374.48 2.28L375.68 2.37L376.84 2.46L377.97 2.57L379.05 2.67L380.09 2.79L381.08 2.91L382.02 3.04L382.91 3.18L383.73 3.32L384.5 3.47L385.21 3.62L385.93 3.77L386.66 3.93L387.41 4.1L388.18 4.28L388.95 4.46L389.73 4.65L390.52 4.84L391.32 5.05L392.12 5.25L392.93 5.46L393.74 5.68L394.55 5.9L395.36 6.12L396.17 6.35L396.98 6.58L397.78 6.81L398.58 7.05L399.38 7.28L400.16 7.52L400.94 7.76L401.71 8L402.46 8.24L403.21 8.48L403.93 8.71L404.65 8.95L405.35 9.19L406.02 9.42L406.68 9.65L407.32 9.88L407.94 10.1L408.54 10.32L409.11 10.54L409.65 10.75L410.17 10.96L410.65 11.16L411.11 11.35L411.54 11.54L411.94 11.73L412.3 11.9L413.03 12.27L413.73 12.63L414.43 12.99L415.1 13.34L415.76 13.68L416.4 14.01L417.03 14.34L417.65 14.66L418.25 14.97L418.83 15.28L419.4 15.59L419.96 15.89L420.51 16.19L421.05 16.48L421.57 16.77L422.09 17.05L422.59 17.33L423.09 17.61L423.57 17.89L424.05 18.16L424.52 18.43L424.98 18.7L425.43 18.97L425.88 19.24L426.32 19.51L426.75 19.78L427.18 20.04L427.61 20.31L428.03 20.57L428.44 20.84L428.86 21.11L429.27 21.38L429.67 21.65L430.08 21.93L430.48 22.2L430.89 22.48L431.29 22.76L431.69 23.04L432.1 23.33L432.5 23.62L433.57 24.43L435.2 25.76L437.37 27.57L440.04 29.84L443.19 32.54L446.79 35.65L450.8 39.14L455.19 42.97L459.94 47.13L465.02 51.59L470.38 56.31L476.01 61.28L481.88 66.47L487.94 71.84L494.18 77.37L500.56 83.03L507.05 88.81L513.62 94.66L520.24 100.56L526.89 106.49L533.52 112.42L540.11 118.32L546.64 124.16L553.06 129.92L559.35 135.57L565.47 141.08L571.41 146.43L577.12 151.59L582.59 156.52L587.76 161.21L592.63 165.63L597.15 169.75L601.3 173.54L605.04 176.98L608.35 180.03L611.19 182.68L613.54 184.89L615.36 186.63L616.62 187.89L617.3 188.63L617.69 189.14L618.09 189.66L618.49 190.2L618.89 190.75L619.3 191.32L619.71 191.89L620.12 192.48L620.53 193.09L620.94 193.7L621.35 194.32L621.77 194.95L622.18 195.59L622.59 196.24L623 196.89L623.41 197.55L623.82 198.21L624.23 198.88L624.63 199.56L625.03 200.23L625.43 200.91L625.82 201.6L626.2 202.28L626.59 202.96L626.96 203.64L627.33 204.33L627.7 205L628.06 205.68L628.41 206.36L628.75 207.03L629.08 207.69L629.41 208.35L629.73 209.01L630.04 209.65L630.34 210.29L630.62 210.92L630.9 211.55L631.17 212.16L631.43 212.76L631.67 213.35L631.9 213.93L632.25 214.81L632.59 215.68L632.91 216.51L633.22 217.33L633.52 218.13L633.8 218.91L634.07 219.67L634.32 220.43L634.57 221.17L634.8 221.9L635.02 222.62L635.22 223.34L635.42 224.05L635.6 224.76L635.78 225.47L635.94 226.18L636.09 226.89L636.23 227.61L636.36 228.34L636.49 229.07L636.6 229.82L636.71 230.58L636.8 231.35L636.89 232.14L636.97 232.95L637.04 233.78L637.11 234.63L637.16 235.5L637.21 236.4L637.26 237.33L637.3 238.29L637.33 239.28L637.35 240.3L637.37 241.36L637.39 242.45L637.4 243.59L637.41 244.76L637.41 245.98L637.41 247.24L637.4 248.55L637.4 249.62L637.4 250.65L637.39 251.64L637.39 252.59L637.38 253.5L637.38 254.38L637.37 255.23L637.35 256.04L637.34 256.82L637.32 257.57L637.3 258.29L637.28 258.98L637.26 259.65L637.23 260.29L637.2 260.91L637.17 261.51L637.14 262.08L637.1 262.64L637.06 263.17L637.01 263.69L636.96 264.19L636.91 264.68L636.86 265.16L636.8 265.62L636.73 266.08L636.66 266.52L636.59 266.96L636.51 267.39L636.43 267.81L636.35 268.23L636.25 268.65L636.16 269.07L636.06 269.48L635.95 269.9L635.84 270.32L635.72 270.75L635.6 271.18L635.47 271.61L635.34 272.06L635.2 272.51L635 273.12L634.81 273.71L634.61 274.31L634.41 274.9L634.21 275.48L634.01 276.06L633.81 276.64L633.61 277.21L633.41 277.77L633.2 278.34L633 278.9L632.79 279.45L632.58 280L632.37 280.55L632.16 281.09L631.95 281.63L631.73 282.17L631.51 282.7L631.3 283.24L631.07 283.76L630.85 284.29L630.63 284.81L630.4 285.33L630.17 285.84L629.94 286.36L629.71 286.87L629.48 287.38L629.24 287.88L629 288.39L628.76 288.89L628.52 289.39L628.27 289.89L628.02 290.38L627.77 290.88L627.51 291.37L627.26 291.86L627 292.35L626.73 292.84L626.47 293.33L626.2 293.82L625.67 294.76L625.15 295.68L624.63 296.58L624.09 297.47L623.54 298.35L622.96 299.24L622.34 300.13L621.68 301.05L620.97 301.99L620.2 302.97L619.36 303.99L618.44 305.06L617.44 306.19L616.34 307.38L615.15 308.65L613.84 310L612.42 311.44L610.87 312.98L609.19 314.62L607.36 316.38L605.39 318.26L603.25 320.27L600.95 322.42L598.47 324.71L595.81 327.15L592.96 329.76L589.91 332.53L586.65 335.48L583.17 338.62L579.47 341.95L575.54 345.47L571.36 349.21L566.94 353.16L562.26 357.34L557.31 361.75L552.09 366.4L546.58 371.29L540.79 376.45L534.7 381.86L528.3 387.55L522.8 392.44L517.53 397.13L512.49 401.6L507.68 405.88L503.1 409.97L498.73 413.86L494.57 417.56L490.63 421.09L486.88 424.43L483.33 427.61L479.97 430.61L476.8 433.45L473.82 436.14L471.01 438.66L468.37 441.04L465.9 443.28L463.59 445.37L461.44 447.32L459.44 449.15L457.59 450.85L455.88 452.42L454.31 453.88L452.87 455.23L451.56 456.46L450.37 457.59L449.29 458.63L448.33 459.56L447.48 460.41L446.73 461.17L446.08 461.86L445.52 462.46L445.04 462.99L444.65 463.46L444.34 463.86L444.1 464.2L443.92 464.5L443.81 464.74L443.76 464.94L443.75 465.09L443.8 465.22L443.88 465.32L444.02 465.48L444.22 465.69L444.49 465.95L444.82 466.27L445.2 466.64L445.65 467.06L446.15 467.53L446.7 468.05L447.31 468.62L447.97 469.23L448.68 469.88L449.44 470.58L450.25 471.32L451.11 472.1L452.01 472.92L452.96 473.78L453.95 474.68L454.98 475.61L456.05 476.58L457.16 477.58L458.31 478.61L459.49 479.68L460.71 480.78L461.97 481.9L463.25 483.06L464.57 484.24L465.91 485.45L467.29 486.68L468.69 487.93L470.12 489.21L471.57 490.51L473.04 491.83L474.54 493.17L476.06 494.52L477.59 495.89L479.15 497.28L480.72 498.68L482.3 500.09L483.9 501.52L485.5 502.94L487.09 504.34L488.67 505.73L490.22 507.11L491.75 508.47L493.27 509.81L494.76 511.13L496.22 512.43L497.66 513.72L499.08 514.97L500.47 516.21L501.83 517.42L503.16 518.6L504.45 519.76L505.72 520.89L506.95 521.99L508.15 523.06L509.31 524.1L510.43 525.1L511.51 526.07L512.56 527.01L513.56 527.91L514.51 528.77L515.43 529.59L516.3 530.38L517.12 531.12L517.89 531.82L518.62 532.48L519.29 533.09L519.91 533.66L520.48 534.18L521 534.66L521.46 535.08L521.86 535.45L522.2 535.78L522.49 536.05L522.71 536.26L522.87 536.43L522.97 536.53L523 536.58L522.84 536.79L522.36 537.27L521.58 538.01L520.52 539L519.2 540.22L517.62 541.65L515.81 543.29L513.78 545.11L511.55 547.11L509.14 549.27L506.55 551.58L503.81 554.02L500.94 556.57L497.94 559.23L494.84 561.98L491.65 564.8L488.39 567.68L485.07 570.61L481.71 573.57L478.33 576.55L474.93 579.53L471.55 582.5L468.19 585.45L464.87 588.35L461.61 591.21L458.43 593.99L455.33 596.7L452.33 599.31L449.46 601.81L446.73 604.18L444.14 606.42L441.73 608.51L439.51 610.42L437.48 612.16L435.68 613.7L434.11 615.03L432.79 616.14L431.74 617.01L430.97 617.63L430.5 617.98L430.22 618.16L429.92 618.36L429.62 618.56L429.3 618.76L428.98 618.96L428.64 619.17L428.29 619.39L427.94 619.61L427.57 619.83L427.2 620.06L426.81 620.28L426.42 620.52L426.01 620.75L425.6 620.99L425.18 621.24L424.75 621.48L424.32 621.73L423.87 621.98L423.42 622.24L422.96 622.49L422.5 622.75L422.02 623.01L421.54 623.28L421.05 623.54L420.56 623.81L420.06 624.08L419.55 624.35L419.04 624.63L418.52 624.9L418 625.18L417.47 625.46L416.94 625.74L416.4 626.02L415.85 626.3L415.3 626.58L414.75 626.87L414.19 627.15L413.63 627.43L413.07 627.72L412.5 628.01L412.1 628.2L411.68 628.39L411.26 628.59L410.82 628.78L410.37 628.98L409.91 629.17L409.44 629.36L408.96 629.56L408.47 629.75L407.96 629.95L407.45 630.14L406.93 630.34L406.39 630.53L405.85 630.73L405.29 630.92L404.73 631.12L404.15 631.31L403.57 631.5L402.98 631.7L402.38 631.89L401.76 632.08L401.14 632.28L400.51 632.47L399.87 632.66L399.22 632.85L398.57 633.04L397.9 633.23L397.22 633.42L396.54 633.61L395.85 633.8L395.15 633.99L394.44 634.17L393.73 634.36L393 634.54L392.27 634.73L391.53 634.91L390.78 635.1L390.03 635.28L389.27 635.46L388.5 635.64L387.89 635.78L387.3 635.91L386.71 636.04L386.14 636.16L385.58 636.27L385.02 636.39L384.48 636.49L383.94 636.6L383.4 636.7L382.87 636.79L382.35 636.88L381.82 636.97L381.3 637.05L380.78 637.12L380.26 637.2L379.73 637.27L379.21 637.34L378.68 637.4L378.14 637.46L377.6 637.52L377.05 637.57L376.5 637.62L375.93 637.67L375.36 637.71L374.78 637.75L374.18 637.79L373.57 637.83L372.95 637.86L372.31 637.89L371.65 637.92L370.98 637.95L370.29 637.98L369.58 638L368.85 638.02L368.1 638.04L367.33 638.06L366.54 638.08L365.72 638.1L364.87 638.11L364 638.13L363.4 638.14L362.8 638.15L362.2 638.16L361.6 638.17L361.01 638.18L360.41 638.19L359.82 638.19L359.24 638.2L358.66 638.21L358.08 638.21L357.51 638.21L356.94 638.22L356.38 638.22L355.83 638.22L355.29 638.22L354.76 638.22L354.23 638.22L353.71 638.22L353.21 638.22L352.71 638.21L352.23 638.21L351.76 638.21L351.3 638.2L350.85 638.2L350.42 638.19L350 638.18L349.6 638.18L349.21 638.17L348.84 638.16L348.49 638.15L348.15 638.14L347.83 638.13L347.53 638.12L347.25 638.11L346.99 638.1L346.75 638.09L346.53 638.07L346.33 638.06L346.15 638.05L346 638.04L344.76 637.91L343.49 637.76L342.19 637.58L340.87 637.37L339.54 637.15L338.18 636.89L336.8 636.62L335.4 636.32L333.99 635.99L332.57 635.65L331.13 635.28L329.68 634.9L328.23 634.49L326.76 634.06L325.29 633.62L323.82 633.16L322.34 632.67L320.86 632.17L319.38 631.66L317.9 631.12L316.42 630.58L314.95 630.01L313.49 629.43L312.03 628.84L310.58 628.23L309.14 627.61L307.72 626.98L306.31 626.34L304.91 625.68L303.53 625.02L302.17 624.34L300.83 623.66L299.51 622.96L298.21 622.26L296.94 621.55L295.69 620.83L294.47 620.1L293.29 619.37L292.13 618.63L291 617.89L290.51 617.54L289.85 617.04L289.04 616.4L288.07 615.62L286.94 614.69L285.65 613.62L284.21 612.42L282.62 611.07L280.86 609.59L278.96 607.96L276.9 606.2L274.69 604.3L272.33 602.27L269.83 600.1L267.17 597.79L264.36 595.35L261.41 592.78L258.31 590.08L255.06 587.25L251.67 584.28L248.14 581.18L244.47 577.96L240.65 574.61L236.69 571.13L232.59 567.52L228.35 563.78L223.98 559.92L219.46 555.94L214.81 551.83L210.03 547.6L205.11 543.25L200.05 538.77L194.87 534.17L189.55 529.46L184.09 524.62L178.51 519.67L172.8 514.6L166.96 509.41L160.99 504.1L154.9 498.68L146.21 490.95L137.92 483.58L130.01 476.55L122.49 469.85L115.33 463.49L108.54 457.44L102.09 451.7L95.99 446.26L90.21 441.11L84.76 436.24L79.61 431.65L74.77 427.32L70.21 423.24L65.94 419.41L61.93 415.81L58.19 412.45L54.7 409.3L51.45 406.36L48.42 403.62L45.62 401.07L43.04 398.71L40.65 396.52L38.45 394.49L36.44 392.62L34.6 390.89L32.91 389.3L31.38 387.84L30 386.49L28.74 385.26L27.61 384.13L26.58 383.09L25.66 382.13L24.84 381.25L24.09 380.43L23.42 379.66L22.81 378.95L22.25 378.27L21.74 377.62L21.26 376.99L20.8 376.36L19.82 375.01L18.88 373.66L17.95 372.31L17.06 370.96L16.19 369.61L15.35 368.27L14.54 366.93L13.76 365.59L13 364.24L12.26 362.9L11.56 361.56L10.87 360.21L10.22 358.87L9.59 357.52L8.99 356.17L8.41 354.81L7.86 353.45L7.33 352.09L6.83 350.72L6.35 349.35L5.9 347.97L5.47 346.58L5.07 345.19L4.69 343.79L4.33 342.38L4 340.97L3.69 339.54L3.41 338.11L3.15 336.66L2.91 335.21L2.7 333.75L2.51 332.27L2.34 330.78L2.2 329.28L2.07 327.77L1.98 326.24L1.9 324.71L1.84 323.15L1.81 321.58L1.8 320L1.81 318.77L1.82 317.56L1.85 316.37L1.89 315.19L1.94 314.03L2 312.89L2.07 311.76L2.15 310.64L2.25 309.53L2.36 308.44L2.48 307.36L2.62 306.29L2.77 305.22L2.93 304.17L3.1 303.12L3.29 302.08L3.49 301.04L3.71 300.01L3.94 298.99L4.19 297.96L4.45 296.94L4.72 295.92L5.01 294.91L5.32 293.89L5.64 292.87L5.98 291.84L6.33 290.82L6.7 289.79L7.09 288.76L7.5 287.72L7.92 286.68L8.35 285.63L8.81 284.57L9.28 283.5L9.77 282.42L10.28 281.33L10.81 280.23L11.35 279.12L11.92 278L12.5 276.86L13.13 275.63L13.73 274.45L14.31 273.33L14.89 272.25L15.47 271.18L16.09 270.13L16.74 269.06L17.45 267.98L18.23 266.86L19.1 265.7L20.06 264.47L21.14 263.17L22.34 261.78L23.69 260.28L25.2 258.67L26.89 256.92L28.76 255.03L30.83 252.98L33.12 250.76L35.64 248.35L38.41 245.73L41.43 242.91L44.74 239.85L48.33 236.55L52.24 232.99L56.46 229.16L61.01 225.05L65.92 220.63L71.19 215.91L76.84 210.86L82.88 205.46L89.33 199.71L96.2 193.6L103.51 187.1L111.28 180.2L119.51 172.89L128.22 165.16L137.43 156.99L147.15 148.37L157.4 139.28L165.57 132.03L173.41 125.07L180.92 118.41L188.11 112.04L194.98 105.94L201.56 100.12L207.83 94.56L213.81 89.26L219.52 84.21L224.94 79.42L230.1 74.86L235 70.54L239.64 66.44L244.04 62.57L248.2 58.92L252.12 55.47L255.83 52.22L259.31 49.17L262.59 46.31L265.66 43.64L268.54 41.14L271.23 38.81L273.75 36.65L276.08 34.64L278.26 32.79L280.27 31.08L282.14 29.51L283.86 28.07L285.45 26.76L286.9 25.57L288.24 24.49L289.46 23.52L290.57 22.64L291.59 21.87L292.51 21.18L293.35 20.57L294.11 20.04L294.8 19.58L295.43 19.17L296 18.83L297.02 18.24L298.03 17.67L299.04 17.12L300.03 16.57L301.02 16.04L302 15.52L302.98 15.02L303.95 14.53L304.92 14.05L305.88 13.58L306.85 13.12L307.81 12.67L308.78 12.23L309.75 11.81L310.72 11.39L311.7 10.98L312.68 10.58L313.67 10.19L314.66 9.81L315.66 9.43L316.67 9.06L317.7 8.7L318.73 8.35L319.77 8L320.83 7.66L321.91 7.33L322.99 7L324.1 6.67L325.22 6.35L326.36 6.03L327.52 5.72L328.7 5.41L329.9 5.11L331.13 4.81L332.37 4.5L333.65 4.21L334.94 3.91L336.27 3.62L337.62 3.32L339 3.03L339.69 2.89L340.44 2.76L341.25 2.65L342.12 2.53L343.05 2.43L344.03 2.33L345.06 2.24L346.13 2.16L347.25 2.09L348.4 2.02L349.59 1.97L350.81 1.92L352.06 1.87L353.34 1.84L354.64 1.81L355.95 1.79L357.28 1.78L358.63 1.77L359.98 1.78L361.34 1.79ZM360.5 535.69L441.3 463.97L401.2 428.38L399.55 426.92L397.92 425.48L396.3 424.04L394.7 422.63L393.13 421.23L391.57 419.85L390.04 418.49L388.53 417.15L387.05 415.83L385.6 414.53L384.17 413.26L382.77 412.01L381.4 410.79L380.07 409.6L378.77 408.43L377.5 407.3L376.27 406.19L375.08 405.12L373.93 404.08L372.81 403.08L371.74 402.11L370.71 401.18L369.73 400.29L368.79 399.44L367.89 398.63L367.05 397.86L366.25 397.13L365.51 396.45L364.81 395.82L364.17 395.23L363.59 394.68L363.06 394.19L362.59 393.75L362.17 393.36L361.82 393.02L361.53 392.74L361.3 392.51L361.13 392.34L361.03 392.22L361 392.16L361.07 392.08L361.27 391.87L361.6 391.55L362.06 391.12L362.65 390.57L363.36 389.92L364.18 389.15L365.13 388.29L366.19 387.32L367.37 386.25L368.65 385.09L370.04 383.83L371.53 382.48L373.13 381.04L374.83 379.51L376.62 377.9L378.51 376.2L380.48 374.42L382.55 372.57L384.7 370.64L386.93 368.64L389.25 366.56L391.64 364.42L394.11 362.21L396.65 359.94L399.27 357.6L401.94 355.21L404.69 352.76L407.49 350.26L410.36 347.7L413.28 345.1L416.26 342.45L419.29 339.75L422.36 337.01L425.48 334.23L428.65 331.42L431.86 328.56L435.1 325.68L438.39 322.77L441.7 319.82L522.5 248.1L360.5 104.31L117.5 320L360.5 535.69Z" id="a122jB83pw"></path><path d="M-130.4 719.43L-130.4 -79.43L769.6 -79.43L769.6 719.43L-130.4 719.43ZM355.56 1.79L354.24 1.81L352.94 1.84L351.67 1.87L350.42 1.91L349.19 1.96L348.01 2.02L346.85 2.09L345.74 2.16L344.66 2.24L343.63 2.33L342.65 2.43L341.73 2.53L340.86 2.64L340.04 2.76L339.29 2.89L338.6 3.03L337.22 3.32L335.87 3.61L334.55 3.91L333.25 4.2L331.98 4.5L330.73 4.8L329.51 5.11L328.3 5.41L327.12 5.72L325.96 6.03L324.82 6.35L323.7 6.67L322.6 6.99L321.51 7.32L320.44 7.66L319.38 8L318.33 8.35L317.3 8.7L316.28 9.06L315.27 9.43L314.26 9.8L313.27 10.19L312.28 10.58L311.3 10.98L310.33 11.39L309.35 11.8L308.38 12.23L307.42 12.67L306.45 13.12L305.49 13.57L304.52 14.04L303.55 14.52L302.58 15.02L301.6 15.52L300.62 16.04L299.63 16.57L298.64 17.11L297.64 17.67L296.63 18.24L295.6 18.83L295.03 19.17L294.4 19.57L293.71 20.04L292.95 20.57L292.11 21.18L291.19 21.87L290.18 22.64L289.06 23.51L287.84 24.49L286.51 25.56L285.05 26.76L283.46 28.07L281.74 29.51L279.88 31.08L277.86 32.78L275.69 34.64L273.35 36.64L270.84 38.81L268.15 41.14L265.27 43.64L262.19 46.31L258.92 49.17L255.43 52.22L251.73 55.47L247.8 58.91L243.64 62.57L239.24 66.44L234.6 70.54L229.7 74.86L224.55 79.42L219.12 84.21L213.42 89.26L207.43 94.56L201.16 100.11L194.59 105.94L187.71 112.03L180.52 118.41L173.01 125.07L165.17 132.03L157 139.28L146.76 148.37L137.04 156.99L127.83 165.16L119.11 172.89L110.88 180.2L103.12 187.09L95.81 193.59L88.93 199.71L82.48 205.46L76.44 210.85L70.79 215.91L65.52 220.63L60.62 225.04L56.06 229.16L51.84 232.99L47.94 236.55L44.34 239.85L41.04 242.9L38.01 245.73L35.24 248.34L32.72 250.76L30.43 252.98L28.36 255.03L26.49 256.92L24.81 258.67L23.3 260.28L21.95 261.78L20.74 263.17L19.66 264.47L18.7 265.7L17.83 266.86L17.06 267.98L16.35 269.06L15.69 270.12L15.08 271.18L14.49 272.24L13.91 273.33L13.33 274.45L12.74 275.62L12.1 276.86L11.52 278L10.96 279.12L10.41 280.23L9.88 281.33L9.38 282.42L8.89 283.5L8.41 284.56L7.96 285.62L7.52 286.67L7.1 287.72L6.7 288.76L6.31 289.79L5.94 290.82L5.58 291.84L5.25 292.86L4.92 293.88L4.62 294.9L4.33 295.92L4.05 296.94L3.79 297.96L3.55 298.99L3.31 300.01L3.1 301.04L2.9 302.08L2.71 303.12L2.53 304.17L2.37 305.22L2.22 306.28L2.09 307.36L1.96 308.44L1.86 309.53L1.76 310.64L1.67 311.75L1.6 312.89L1.54 314.03L1.49 315.19L1.45 316.37L1.43 317.56L1.41 318.77L1.4 320L1.41 321.58L1.45 323.15L1.5 324.7L1.58 326.24L1.68 327.77L1.8 329.28L1.95 330.78L2.11 332.27L2.3 333.74L2.52 335.21L2.75 336.66L3.01 338.11L3.3 339.54L3.6 340.96L3.94 342.38L4.29 343.79L4.67 345.19L5.07 346.58L5.5 347.97L5.95 349.35L6.43 350.72L6.93 352.09L7.46 353.45L8.01 354.81L8.59 356.16L9.19 357.52L9.82 358.87L10.48 360.21L11.16 361.56L11.87 362.9L12.6 364.24L13.36 365.58L14.15 366.93L14.96 368.27L15.8 369.61L16.66 370.96L17.56 372.3L18.48 373.65L19.43 375.01L20.4 376.36L20.86 376.98L21.34 377.62L21.86 378.27L22.41 378.95L23.02 379.66L23.7 380.43L24.44 381.25L25.27 382.13L26.19 383.09L27.21 384.13L28.34 385.26L29.6 386.49L30.99 387.84L32.52 389.3L34.2 390.89L36.04 392.61L38.06 394.49L40.25 396.51L42.64 398.71L45.23 401.07L48.03 403.62L51.05 406.36L54.3 409.3L57.79 412.45L61.54 415.81L65.54 419.41L69.81 423.24L74.37 427.31L79.21 431.64L84.36 436.24L89.82 441.11L95.59 446.26L101.7 451.7L108.14 457.44L114.94 463.48L122.09 469.85L129.62 476.54L137.52 483.57L145.81 490.95L154.5 498.68L160.6 504.1L166.57 509.4L172.41 514.59L178.12 519.67L183.7 524.62L189.15 529.46L194.47 534.17L199.66 538.77L204.71 543.24L209.63 547.6L214.42 551.83L219.07 555.94L223.58 559.92L227.96 563.78L232.2 567.52L236.29 571.12L240.25 574.6L244.07 577.96L247.75 581.18L251.28 584.28L254.67 587.24L257.91 590.08L261.01 592.78L263.97 595.35L266.77 597.79L269.43 600.09L271.94 602.26L274.3 604.3L276.51 606.2L278.56 607.96L280.47 609.58L282.22 611.07L283.82 612.42L285.26 613.62L286.54 614.69L287.67 615.61L288.64 616.4L289.46 617.04L290.11 617.53L290.6 617.89L291.46 618.46L292.34 619.03L293.23 619.59L294.14 620.15L295.06 620.71L296.01 621.27L296.96 621.82L297.93 622.36L298.91 622.9L299.91 623.44L300.91 623.97L301.93 624.49L302.96 625.01L303.99 625.52L305.04 626.03L306.09 626.53L307.15 627.02L308.21 627.5L309.28 627.97L310.35 628.44L311.43 628.89L312.51 629.34L313.6 629.78L314.68 630.21L315.77 630.63L316.85 631.03L317.94 631.43L319.02 631.82L320.1 632.19L321.18 632.55L322.25 632.9L323.32 633.24L324.38 633.57L325.44 633.88L326.49 634.18L327.53 634.46L328.56 634.73L329.59 634.99L330.6 635.23L331.6 635.46L332.56 635.67L333.48 635.87L334.36 636.05L335.21 636.23L336.01 636.4L336.79 636.56L337.54 636.71L338.26 636.85L338.96 636.99L339.64 637.11L340.3 637.23L340.95 637.34L341.58 637.44L342.2 637.53L342.82 637.62L343.43 637.7L344.04 637.77L344.65 637.84L345.26 637.9L345.88 637.96L346.51 638.01L347.14 638.05L347.8 638.09L348.47 638.12L349.15 638.15L349.87 638.17L350.6 638.19L351.36 638.2L352.15 638.21L352.98 638.22L353.84 638.22L354.74 638.22L355.68 638.22L356.66 638.21L357.68 638.2L358.76 638.19L359.89 638.18L361.07 638.16L362.31 638.14L363.6 638.12L364.48 638.11L365.32 638.09L366.14 638.08L366.94 638.06L367.71 638.04L368.46 638.02L369.19 638L369.9 637.98L370.59 637.95L371.26 637.92L371.91 637.89L372.55 637.86L373.17 637.83L373.78 637.79L374.38 637.75L374.96 637.71L375.54 637.66L376.1 637.62L376.66 637.57L377.2 637.51L377.74 637.46L378.28 637.4L378.81 637.33L379.34 637.27L379.86 637.2L380.38 637.12L380.9 637.04L381.43 636.96L381.95 636.88L382.48 636.79L383.01 636.69L383.54 636.6L384.08 636.49L384.63 636.38L385.18 636.27L385.74 636.16L386.32 636.03L386.9 635.91L387.5 635.78L388.1 635.64L388.87 635.46L389.63 635.28L390.39 635.09L391.14 634.91L391.88 634.73L392.61 634.54L393.33 634.36L394.05 634.17L394.75 633.98L395.45 633.8L396.15 633.61L396.83 633.42L397.5 633.23L398.17 633.04L398.83 632.85L399.48 632.66L400.11 632.47L400.75 632.27L401.37 632.08L401.98 631.89L402.58 631.69L403.18 631.5L403.76 631.31L404.33 631.11L404.9 630.92L405.45 630.72L406 630.53L406.53 630.34L407.05 630.14L407.57 629.95L408.07 629.75L408.56 629.56L409.04 629.36L409.51 629.17L409.97 628.97L410.42 628.78L410.86 628.58L411.29 628.39L411.7 628.2L412.1 628L412.67 627.72L413.24 627.43L413.8 627.15L414.35 626.86L414.91 626.58L415.46 626.3L416 626.01L416.54 625.73L417.07 625.45L417.6 625.18L418.13 624.9L418.64 624.62L419.16 624.35L419.66 624.08L420.16 623.81L420.66 623.54L421.15 623.27L421.63 623.01L422.1 622.75L422.57 622.49L423.03 622.23L423.48 621.98L423.92 621.73L424.36 621.48L424.79 621.23L425.21 620.99L425.62 620.75L426.02 620.52L426.41 620.28L426.8 620.05L427.17 619.83L427.54 619.61L427.9 619.39L428.24 619.17L428.58 618.96L428.91 618.76L429.22 618.55L429.53 618.36L429.82 618.16L430.1 617.97L430.57 617.62L431.34 617.01L432.4 616.14L433.71 615.03L435.28 613.7L437.09 612.16L439.11 610.42L441.34 608.5L443.75 606.42L446.33 604.18L449.06 601.81L451.94 599.31L454.93 596.7L458.03 593.99L461.22 591.21L464.48 588.35L467.8 585.44L471.15 582.5L474.54 579.53L477.93 576.54L481.31 573.57L484.67 570.61L487.99 567.68L491.25 564.8L494.44 561.97L497.55 559.23L500.54 556.57L503.42 554.01L506.16 551.58L508.74 549.27L511.16 547.11L513.39 545.11L515.42 543.29L517.23 541.65L518.8 540.21L520.13 539L521.19 538.01L521.96 537.27L522.44 536.79L522.6 536.58L522.57 536.53L522.47 536.42L522.31 536.26L522.09 536.05L521.81 535.77L521.46 535.45L521.06 535.08L520.6 534.65L520.09 534.18L519.52 533.66L518.9 533.09L518.22 532.48L517.5 531.82L516.72 531.12L515.9 530.38L515.03 529.59L514.12 528.77L513.16 527.91L512.16 527.01L511.12 526.07L510.03 525.1L508.91 524.1L507.75 523.06L506.56 521.99L505.32 520.89L504.06 519.76L502.76 518.6L501.43 517.42L500.07 516.21L498.68 514.97L497.27 513.71L495.83 512.43L494.36 511.13L492.87 509.81L491.36 508.47L489.82 507.11L488.27 505.73L486.7 504.34L485.11 502.94L483.5 501.52L481.91 500.09L480.32 498.68L478.75 497.28L477.2 495.89L475.66 494.52L474.14 493.16L472.65 491.83L471.17 490.51L469.72 489.21L468.29 487.93L466.89 486.68L465.52 485.44L464.17 484.24L462.86 483.06L461.57 481.9L460.32 480.78L459.1 479.68L457.91 478.61L456.76 477.58L455.65 476.58L454.58 475.61L453.55 474.67L452.56 473.78L451.62 472.92L450.71 472.1L449.86 471.32L449.05 470.58L448.29 469.88L447.57 469.22L446.91 468.61L446.3 468.05L445.75 467.53L445.25 467.06L444.81 466.64L444.42 466.27L444.09 465.95L443.83 465.69L443.62 465.47L443.48 465.32L443.4 465.21L443.36 465.09L443.36 464.93L443.41 464.74L443.53 464.49L443.7 464.2L443.94 463.86L444.26 463.46L444.65 462.99L445.12 462.46L445.68 461.85L446.33 461.17L447.08 460.41L447.94 459.56L448.9 458.62L449.97 457.59L451.16 456.46L452.47 455.22L453.91 453.88L455.48 452.42L457.19 450.85L459.04 449.15L461.04 447.32L463.19 445.37L465.5 443.27L467.97 441.04L470.61 438.66L473.42 436.13L476.41 433.45L479.58 430.61L482.93 427.6L486.48 424.43L490.23 421.09L494.18 417.56L498.33 413.86L502.7 409.96L507.29 405.88L512.1 401.6L517.13 397.12L522.4 392.44L527.9 387.55L534.3 381.86L540.39 376.44L546.19 371.29L551.69 366.4L556.91 361.75L561.86 357.34L566.54 353.16L570.97 349.21L575.14 345.47L579.07 341.94L582.78 338.62L586.25 335.48L589.51 332.53L592.56 329.76L595.42 327.15L598.08 324.71L600.55 322.42L602.86 320.27L604.99 318.26L606.97 316.38L608.79 314.62L610.48 312.98L612.02 311.44L613.45 310L614.75 308.65L615.95 307.38L617.04 306.18L618.05 305.06L618.96 303.99L619.8 302.97L620.57 301.99L621.29 301.05L621.95 300.13L622.56 299.24L623.14 298.35L623.7 297.47L624.23 296.58L624.76 295.68L625.28 294.76L625.8 293.81L626.07 293.33L626.34 292.84L626.6 292.35L626.86 291.86L627.12 291.37L627.37 290.88L627.62 290.38L627.87 289.88L628.12 289.39L628.36 288.89L628.6 288.38L628.84 287.88L629.08 287.37L629.32 286.87L629.55 286.35L629.78 285.84L630.01 285.33L630.23 284.81L630.46 284.29L630.68 283.76L630.9 283.23L631.12 282.7L631.33 282.17L631.55 281.63L631.76 281.09L631.97 280.55L632.18 280L632.39 279.45L632.6 278.89L632.81 278.34L633.01 277.77L633.22 277.21L633.42 276.63L633.62 276.06L633.82 275.48L634.02 274.89L634.22 274.31L634.41 273.71L634.61 273.11L634.8 272.51L634.94 272.06L635.08 271.61L635.2 271.17L635.33 270.74L635.44 270.32L635.56 269.9L635.66 269.48L635.76 269.06L635.86 268.65L635.95 268.23L636.04 267.81L636.12 267.38L636.19 266.95L636.27 266.52L636.33 266.07L636.4 265.62L636.46 265.16L636.52 264.68L636.57 264.19L636.62 263.69L636.66 263.17L636.7 262.63L636.74 262.08L636.78 261.5L636.81 260.91L636.84 260.29L636.86 259.65L636.89 258.98L636.91 258.29L636.93 257.57L636.94 256.82L636.96 256.04L636.97 255.23L636.98 254.38L636.99 253.5L636.99 252.59L637 251.64L637 250.64L637 249.61L637 248.54L637.01 247.24L637.01 245.98L637.01 244.76L637 243.58L636.99 242.45L636.98 241.36L636.96 240.3L636.93 239.28L636.9 238.29L636.86 237.33L636.82 236.4L636.77 235.5L636.71 234.63L636.65 233.78L636.57 232.95L636.49 232.14L636.41 231.35L636.31 230.58L636.21 229.82L636.09 229.07L635.97 228.34L635.84 227.61L635.69 226.89L635.54 226.18L635.38 225.46L635.21 224.76L635.02 224.05L634.83 223.33L634.62 222.62L634.4 221.89L634.17 221.16L633.93 220.42L633.67 219.67L633.4 218.91L633.12 218.13L632.83 217.33L632.52 216.51L632.19 215.67L631.86 214.81L631.5 213.93L631.27 213.35L631.03 212.76L630.77 212.16L630.51 211.54L630.23 210.92L629.94 210.29L629.64 209.65L629.33 209L629.01 208.35L628.69 207.69L628.35 207.02L628.01 206.35L627.66 205.68L627.3 205L626.94 204.32L626.57 203.64L626.19 202.96L625.81 202.28L625.42 201.59L625.03 200.91L624.63 200.23L624.23 199.56L623.83 198.88L623.43 198.21L623.02 197.55L622.61 196.89L622.2 196.23L621.78 195.59L621.37 194.95L620.96 194.32L620.54 193.7L620.13 193.08L619.72 192.48L619.31 191.89L618.9 191.31L618.5 190.75L618.09 190.2L617.69 189.66L617.3 189.14L616.9 188.63L616.23 187.89L614.96 186.63L613.14 184.88L610.79 182.67L607.95 180.03L604.64 176.97L600.9 173.54L596.75 169.75L592.23 165.63L587.37 161.21L582.19 156.52L576.73 151.58L571.02 146.43L565.08 141.08L558.95 135.57L552.66 129.92L546.24 124.16L539.72 118.32L533.12 112.42L526.49 106.49L519.85 100.56L513.23 94.66L506.65 88.8L500.16 83.03L493.78 77.37L487.55 71.83L481.48 66.46L475.62 61.28L469.99 56.31L464.62 51.59L459.55 47.13L454.8 42.97L450.4 39.13L446.39 35.65L442.8 32.54L439.65 29.84L436.97 27.57L434.8 25.76L433.17 24.43L432.1 23.62L431.7 23.33L431.3 23.04L430.89 22.76L430.49 22.48L430.09 22.2L429.68 21.92L429.28 21.65L428.87 21.38L428.46 21.11L428.05 20.84L427.63 20.57L427.21 20.31L426.79 20.04L426.36 19.77L425.92 19.51L425.48 19.24L425.04 18.97L424.58 18.7L424.12 18.43L423.65 18.16L423.18 17.89L422.69 17.61L422.2 17.33L421.69 17.05L421.18 16.76L420.65 16.48L420.12 16.18L419.57 15.89L419.01 15.59L418.44 15.28L417.85 14.97L417.25 14.66L416.64 14.33L416.01 14.01L415.36 13.67L414.71 13.33L414.03 12.99L413.34 12.63L412.63 12.27L411.9 11.9L411.54 11.73L411.15 11.54L410.72 11.35L410.26 11.16L409.77 10.95L409.25 10.75L408.71 10.54L408.14 10.32L407.54 10.1L406.93 9.87L406.29 9.65L405.63 9.42L404.95 9.18L404.25 8.95L403.54 8.71L402.81 8.47L402.07 8.24L401.31 8L400.54 7.76L399.77 7.52L398.98 7.28L398.19 7.05L397.39 6.81L396.58 6.58L395.77 6.35L394.96 6.12L394.15 5.9L393.34 5.68L392.53 5.46L391.72 5.25L390.92 5.04L390.12 4.84L389.33 4.65L388.55 4.46L387.78 4.27L387.02 4.1L386.27 3.93L385.53 3.77L384.81 3.61L384.1 3.47L383.34 3.32L382.51 3.18L381.62 3.04L380.68 2.91L379.69 2.79L378.65 2.67L377.57 2.56L376.44 2.46L375.28 2.37L374.08 2.28L372.85 2.2L371.6 2.12L370.32 2.05L369.01 1.99L367.69 1.94L366.36 1.9L365.01 1.86L363.66 1.83L362.3 1.8L360.94 1.78L359.58 1.77L358.23 1.77L356.89 1.78L355.56 1.79Z" id="c4OqCj8vW"></path><path d="M117.1 320L238.6 212.15L360.1 104.3L441.1 176.2L522.1 248.1C473.62 291.13 446.69 315.04 441.3 319.82C396.9 359.23 360.6 391.81 360.6 392.16C360.6 392.52 378.7 408.85 400.8 428.38C403.48 430.75 416.84 442.61 440.9 463.97C416.66 485.49 403.2 497.44 400.5 499.83C378.3 519.54 360.1 535.69 360.1 535.69C360.1 535.69 305.4 487.14 238.6 427.84C222.4 413.47 181.9 377.52 117.1 320Z" id="d4MQ4NrOGw"></path></defs><g><g><g><use xlink:href="#a122jB83pw" opacity="1" fill="#b5b5b5" fill-opacity="1"></use><g><use xlink:href="#a122jB83pw" opacity="1" fill-opacity="0" stroke="#000000" stroke-width="1" stroke-opacity="0"></use></g></g><g><g><use xlink:href="#c4OqCj8vW" opacity="1" fill-opacity="0" stroke="#000000" stroke-width="1" stroke-opacity="0"></use></g></g><g><g><use xlink:href="#d4MQ4NrOGw" opacity="1" fill-opacity="0" stroke="#000000" stroke-width="1" stroke-opacity="0"></use></g></g></g></g></svg>